<svg width="18" height="17" viewBox="0 0 18 17" fill="none" xmlns="http://www.w3.org/2000/svg">
<path d="M4.5 9.91667H10.5V8.50001H4.5V9.91667ZM4.5 7.79167H13.5V6.37501H4.5V7.79167ZM4.5 5.66667H13.5V4.25001H4.5V5.66667ZM1.5 15.5833V2.83334C1.5 2.44376 1.647 2.11013 1.941 1.83246C2.235 1.5548 2.588 1.4162 3 1.41667H15C15.4125 1.41667 15.7657 1.55551 16.0597 1.83317C16.3538 2.11084 16.5005 2.44423 16.5 2.83334V11.3333C16.5 11.7229 16.353 12.0565 16.059 12.3342C15.765 12.6119 15.412 12.7505 15 12.75H4.5L1.5 15.5833ZM3.8625 11.3333H15V2.83334H3V12.1302L3.8625 11.3333Z" fill="white"/>
</svg>
