<svg width="18" height="17" viewBox="0 0 18 17" fill="none" xmlns="http://www.w3.org/2000/svg">
<path d="M10.6875 5.3125H14.625V6.375H10.6875V5.3125ZM10.6875 7.96875H14.625V9.03125H10.6875V7.96875ZM10.6875 10.625H14.625V11.6875H10.6875V10.625ZM3.375 5.3125H7.3125V6.375H3.375V5.3125ZM3.375 7.96875H7.3125V9.03125H3.375V7.96875ZM3.375 10.625H7.3125V11.6875H3.375V10.625Z" fill="white"/>
<path d="M15.75 2.65625H2.25C1.95172 2.65653 1.66575 2.76856 1.45483 2.96776C1.24392 3.16696 1.1253 3.43704 1.125 3.71875V13.2812C1.1253 13.563 1.24392 13.833 1.45483 14.0322C1.66575 14.2314 1.95172 14.3435 2.25 14.3438H15.75C16.0483 14.3435 16.3343 14.2314 16.5452 14.0322C16.7561 13.833 16.8747 13.563 16.875 13.2812V3.71875C16.8747 3.43704 16.7561 3.16696 16.5452 2.96776C16.3343 2.76856 16.0483 2.65653 15.75 2.65625ZM2.25 3.71875H8.4375V13.2812H2.25V3.71875ZM9.5625 13.2812V3.71875H15.75V13.2812H9.5625Z" fill="white"/>
</svg>
