<svg width="18" height="17" viewBox="0 0 18 17" fill="none" xmlns="http://www.w3.org/2000/svg">
<g clip-path="url(#clip0_474_3076)">
<path d="M15.6455 0.0969543H2.42615C1.13071 0.0969543 0.0771484 1.09252 0.0771484 2.31599V14.799C0.0771484 16.0228 1.13099 17.0186 2.42615 17.0186H15.6455C16.9406 17.0186 17.9947 16.023 17.9947 14.799V2.31599C17.9947 1.09252 16.9409 0.0969543 15.6455 0.0969543ZM12.7998 4.58283C13.2321 4.58283 13.6467 4.74503 13.9524 5.03376C14.2582 5.32248 14.4299 5.71407 14.4299 6.12239C14.4299 6.53071 14.2582 6.9223 13.9524 7.21103C13.6467 7.49975 13.2321 7.66195 12.7998 7.66195C12.3674 7.66195 11.9528 7.49975 11.6471 7.21103C11.3414 6.9223 11.1696 6.53071 11.1696 6.12239C11.1696 5.71407 11.3414 5.32248 11.6471 5.03376C11.9528 4.74503 12.3674 4.58283 12.7998 4.58283ZM2.58843 3.08258V5.87483H2.1463C2.12636 5.8749 2.1066 5.87125 2.08816 5.86408C2.06972 5.85691 2.05296 5.84637 2.03885 5.83307C2.02473 5.81976 2.01354 5.80395 2.00592 5.78655C1.9983 5.76915 1.99439 5.75049 1.99443 5.73166V2.12872C1.99443 2.0068 2.09062 1.90745 2.2228 1.90745H4.17777C4.30968 1.90745 4.40615 2.00627 4.40615 2.12819V2.33989H7.42846C7.51284 2.33989 7.58034 2.40391 7.58034 2.48253V3.29269H5.00043V3.08072C5.00043 2.9588 4.90396 2.85999 4.77149 2.85999H2.81709C2.6849 2.85999 2.58815 2.96066 2.58815 3.08284L2.58843 3.08258ZM3.33459 7.70844C3.31466 7.70854 3.2949 7.70492 3.27646 7.69779C3.25802 7.69065 3.24126 7.68013 3.22715 7.66685C3.21303 7.65357 3.20183 7.63777 3.19421 7.62039C3.18658 7.603 3.18267 7.58435 3.18271 7.56553V3.96259C3.18271 3.84067 3.2789 3.74133 3.41109 3.74133H5.36549C5.49768 3.74133 5.59443 3.84041 5.59443 3.96206V4.17377H8.61674C8.70084 4.17377 8.76862 4.23778 8.76862 4.31641V7.5658C8.76862 7.5846 8.76468 7.60321 8.75704 7.62057C8.7494 7.63793 8.7382 7.65369 8.72408 7.66694C8.70997 7.6802 8.69322 7.69069 8.6748 7.69781C8.65638 7.70493 8.63665 7.70854 8.61674 7.70844H3.33459ZM10.5638 15.2445V10.5668H10.3416L9.33027 11.9922C9.16546 12.2041 8.83105 12.3072 8.56471 12.3072H6.18984C6.00042 12.3073 5.81873 12.2363 5.68471 12.1099C5.5507 11.9835 5.47533 11.8119 5.47518 11.633C5.47518 11.2614 5.79552 10.9682 6.18984 10.9682H8.34984L9.84834 8.82831C10.2075 8.31088 10.9092 8.06066 11.4745 8.06066L14.4102 8.05906C14.6249 8.05892 14.8375 8.09873 15.0358 8.17621C15.2342 8.25369 15.4144 8.36732 15.5663 8.51061C15.7181 8.6539 15.8386 8.82405 15.9208 9.01133C16.003 9.1986 16.0454 9.39934 16.0454 9.60208L16.0488 15.2448H10.5636L10.5638 15.2445Z" fill="white"/>
<path d="M6.42577 4.66464H5.52549V5.51438H4.62549V6.36464H5.52549V7.21464H6.42577V6.36464H7.32577V5.51438H6.42577V4.66464Z" fill="white"/>
</g>
<defs>
<clipPath id="clip0_474_3076">
<rect width="18" height="17" fill="white"/>
</clipPath>
</defs>
</svg>
