<svg width="18" height="17" viewBox="0 0 18 17" fill="none" xmlns="http://www.w3.org/2000/svg">
<path d="M10.875 3.89583L13.875 6.72916M2.25 14.875H5.25L15 5.66666C15.3978 5.29094 15.6213 4.78135 15.6213 4.25C15.6213 3.71864 15.3978 3.20905 15 2.83333C14.6022 2.45761 14.0626 2.24653 13.5 2.24653C12.9374 2.24653 12.3978 2.45761 12 2.83333L2.25 12.0417V14.875Z" stroke="white" stroke-width="2" stroke-linecap="round" stroke-linejoin="round"/>
<path d="M9 5.66667L5.25 2.125L2.25 4.95833L6 8.5M5.25 5.66667L4.125 6.72917M12 8.5L15.75 12.0417L12.75 14.875L9 11.3333M12 12.0417L10.875 13.1042" stroke="white" stroke-width="2" stroke-linecap="round" stroke-linejoin="round"/>
</svg>
