<svg width="18" height="17" viewBox="0 0 18 17" fill="none" xmlns="http://www.w3.org/2000/svg">
<path d="M8.4375 10.625H5.0625C4.61495 10.625 4.18572 10.7929 3.86926 11.0918C3.55279 11.3907 3.375 11.7961 3.375 12.2188V13.2813H4.5V12.2188C4.5 12.0779 4.55926 11.9427 4.66475 11.8431C4.77024 11.7435 4.91332 11.6875 5.0625 11.6875H8.4375C8.58668 11.6875 8.72976 11.7435 8.83525 11.8431C8.94074 11.9427 9 12.0779 9 12.2188V13.2813H10.125V12.2188C10.125 11.7961 9.94721 11.3907 9.63074 11.0918C9.31428 10.7929 8.88505 10.625 8.4375 10.625ZM6.75 10.0938C7.19501 10.0938 7.63002 9.96912 8.00003 9.73562C8.37004 9.50213 8.65843 9.17025 8.82873 8.78195C8.99903 8.39366 9.04358 7.96639 8.95677 7.55418C8.86995 7.14197 8.65566 6.76334 8.34099 6.46615C8.02632 6.16896 7.62541 5.96658 7.18895 5.88458C6.7525 5.80259 6.3001 5.84467 5.88896 6.00551C5.47783 6.16634 5.12643 6.43871 4.87919 6.78816C4.63196 7.13762 4.5 7.54847 4.5 7.96875C4.5 8.53234 4.73705 9.07284 5.15901 9.47135C5.58097 9.86987 6.15326 10.0938 6.75 10.0938ZM6.75 6.90625C6.9725 6.90625 7.19001 6.96857 7.37502 7.08531C7.56002 7.20206 7.70422 7.368 7.78936 7.56215C7.87451 7.7563 7.89679 7.96993 7.85338 8.17603C7.80998 8.38214 7.70283 8.57146 7.5455 8.72005C7.38816 8.86865 7.18771 8.96984 6.96948 9.01084C6.75125 9.05183 6.52505 9.03079 6.31948 8.95037C6.11391 8.86996 5.93821 8.73377 5.8146 8.55905C5.69098 8.38432 5.625 8.17889 5.625 7.96875C5.625 7.68696 5.74353 7.41671 5.9545 7.21745C6.16548 7.01819 6.45163 6.90625 6.75 6.90625Z" fill="white"/>
<path d="M15.75 10.0938V14.875H2.25V4.25H9V3.1875H2.25C1.95163 3.1875 1.66548 3.29944 1.4545 3.4987C1.24353 3.69796 1.125 3.96821 1.125 4.25V14.875C1.125 15.1568 1.24353 15.427 1.4545 15.6263C1.66548 15.8256 1.95163 15.9375 2.25 15.9375H15.75C16.0484 15.9375 16.3345 15.8256 16.5455 15.6263C16.7565 15.427 16.875 15.1568 16.875 14.875V10.0938H15.75Z" fill="white"/>
<path d="M11.25 10.0938H14.625V11.1562H11.25V10.0938ZM12.375 12.2188H14.625V13.2812H12.375V12.2188ZM18 5.3125V4.25H16.8182C16.7456 3.91745 16.6058 3.60124 16.4064 3.31872L17.2446 2.52716L16.4492 1.77597L15.6111 2.56753C15.3119 2.37921 14.9771 2.24717 14.625 2.17866V1.0625H13.5V2.17866C13.1479 2.24717 12.8131 2.37921 12.5139 2.56753L11.6758 1.77597L10.8804 2.52716L11.7186 3.31872C11.5192 3.60124 11.3794 3.91745 11.3068 4.25H10.125V5.3125H11.3068C11.3794 5.64505 11.5192 5.96126 11.7186 6.24378L10.8804 7.03534L11.6758 7.78653L12.5139 6.99497C12.8131 7.18329 13.1479 7.31533 13.5 7.38384V8.5H14.625V7.38384C14.9771 7.31533 15.3119 7.18329 15.6111 6.99497L16.4492 7.78653L17.2446 7.03534L16.4064 6.24378C16.6058 5.96126 16.7456 5.64505 16.8182 5.3125H18ZM14.0625 6.375C13.7287 6.375 13.4025 6.28153 13.125 6.1064C12.8475 5.93128 12.6312 5.68237 12.5035 5.39115C12.3757 5.09993 12.3423 4.77948 12.4074 4.47032C12.4725 4.16117 12.6333 3.87719 12.8693 3.6543C13.1053 3.43141 13.4059 3.27962 13.7333 3.21812C14.0606 3.15663 14.3999 3.18819 14.7083 3.30882C15.0166 3.42944 15.2802 3.63372 15.4656 3.89581C15.651 4.1579 15.75 4.46604 15.75 4.78125C15.7496 5.20381 15.5716 5.60894 15.2552 5.90774C14.9389 6.20653 14.5099 6.37458 14.0625 6.375Z" fill="white"/>
</svg>
