<svg width="18" height="17" viewBox="0 0 18 17" fill="none" xmlns="http://www.w3.org/2000/svg">
<g clip-path="url(#clip0_442_1096)">
<path d="M9.066 3.41416C10.1715 2.90089 11.3938 2.65268 12.625 2.69147C13.8561 2.73026 15.0582 3.05486 16.125 3.63658C16.226 3.69166 16.312 3.76823 16.3762 3.86021C16.4404 3.95218 16.481 4.05703 16.4948 4.16641L16.5 4.25V13.4583C16.5 13.5827 16.4653 13.7048 16.3995 13.8125C16.3337 13.9202 16.239 14.0096 16.125 14.0718C16.011 14.1339 15.8816 14.1666 15.75 14.1666C15.6183 14.1666 15.489 14.1339 15.375 14.0717C14.4629 13.5744 13.4282 13.3126 12.375 13.3126C11.3218 13.3126 10.2871 13.5744 9.375 14.0717C9.26099 14.1339 9.13165 14.1666 9 14.1666C8.86835 14.1666 8.73901 14.1339 8.625 14.0717C7.74649 13.5926 6.7537 13.3317 5.73943 13.3134C4.72516 13.2951 3.72253 13.5199 2.82525 13.9669L2.58 14.0944L2.50275 14.1256L2.466 14.1369L2.3835 14.1553L2.33775 14.1624L2.25 14.1667H2.2185L2.136 14.1582L2.07825 14.1482L1.99725 14.1256L1.90275 14.0859L1.8315 14.0462L1.76475 13.9988L1.71975 13.9591L1.665 13.901L1.617 13.838L1.6005 13.8125L1.5765 13.77L1.5435 13.697L1.5315 13.6623L1.512 13.5844L1.5045 13.5412L1.5015 13.5065L1.5 13.4583V4.25C1.5 4.12566 1.53466 4.00352 1.60049 3.89584C1.66631 3.78816 1.76099 3.69875 1.875 3.63658C2.9418 3.05486 4.14388 2.73026 5.37504 2.69147C6.6062 2.65268 7.82852 2.90089 8.934 3.41416L9 3.44533L9.066 3.41416Z" fill="white"/>
</g>
<defs>
<clipPath id="clip0_442_1096">
<rect width="18" height="17" fill="white"/>
</clipPath>
</defs>
</svg>
