<svg width="24" height="24" viewBox="0 0 24 24" fill="none" xmlns="http://www.w3.org/2000/svg">
<path d="M15 4C13.9391 4 12.9217 4.39509 12.1716 5.09835C11.4214 5.80161 11 6.75544 11 7.75C11 8.74456 11.4214 9.69839 12.1716 10.4017C12.9217 11.1049 13.9391 11.5 15 11.5C16.0609 11.5 17.0783 11.1049 17.8284 10.4017C18.5786 9.69839 19 8.74456 19 7.75C19 6.75544 18.5786 5.80161 17.8284 5.09835C17.0783 4.39509 16.0609 4 15 4ZM15 5.78125C15.2758 5.78125 15.5489 5.83217 15.8036 5.93111C16.0584 6.03005 16.2899 6.17507 16.4849 6.35788C16.6799 6.5407 16.8346 6.75773 16.9401 6.99659C17.0457 7.23545 17.1 7.49146 17.1 7.75C17.1 8.00854 17.0457 8.26455 16.9401 8.50341C16.8346 8.74227 16.6799 8.9593 16.4849 9.14212C16.2899 9.32493 16.0584 9.46995 15.8036 9.56889C15.5489 9.66783 15.2758 9.71875 15 9.71875C14.7242 9.71875 14.4511 9.66783 14.1964 9.56889C13.9416 9.46995 13.7101 9.32493 13.5151 9.14212C13.3201 8.9593 13.1654 8.74227 13.0599 8.50341C12.9543 8.26455 12.9 8.00854 12.9 7.75C12.9 7.22785 13.1212 6.7271 13.5151 6.35788C13.9089 5.98867 14.443 5.78125 15 5.78125ZM4 6.8125V9.625H1V11.5H4V14.3125H6V11.5H9V9.625H6V6.8125H4ZM15 12.4375C12.33 12.4375 7 13.6844 7 16.1875V19H23V16.1875C23 13.6844 17.67 12.4375 15 12.4375ZM15 14.2188C17.97 14.2188 21.1 15.5875 21.1 16.1875V17.2188H8.9V16.1875C8.9 15.5875 12 14.2188 15 14.2188Z" fill="#9C9C9C"/>
</svg>
